<svg width="110" height="100" viewBox="0 0 110 100" fill="none" xmlns="http://www.w3.org/2000/svg">
<path d="M0 10C0 4.47715 4.47715 0 10 0H40L55 15H100C105.523 15 110 19.4772 110 25V90C110 95.5228 105.523 100 100 100H10C4.47715 100 0 95.5228 0 90V10Z" fill="#4A90E2"/>
<path d="M0 35C0 29.4772 4.47715 25 10 25H100C105.523 25 110 29.4772 110 35V90C110 95.5228 105.523 100 100 100H10C4.47715 100 0 95.5228 0 90V35Z" fill="#5DAEFF"/>
<rect x="5" y="28" width="100" height="4" rx="2" fill="white" fill-opacity="0.5"/>
</svg>